<svg width="886" height="948" viewBox="0 0 886 948" fill="none" xmlns="http://www.w3.org/2000/svg">
<path d="M684.903 473.5V600.25L446.313 738L321.316 665.832" stroke="#E88800" stroke-width="50"/>
<path d="M573.622 260.5L446.317 187L207.727 324.75V600.25L255.316 627.726" stroke="#E88800" stroke-width="50"/>
<path d="M587.59 255C560.3 117.766 508.157 25 448.316 25C386.676 25 333.203 123.43 306.648 267.5" stroke="#E88800" stroke-width="50"/>
<path d="M606.566 530.5C596.695 751.805 529.608 923 448.316 923C382.76 923 326.441 811.666 301.918 652.5" stroke="#E88800" stroke-width="50"/>
<path d="M209.317 408.698C93.5028 505.57 45.9903 600.092 77.4192 654.529C121.464 730.816 350.564 692.147 565.317 568.159C780.07 444.172 798.118 347.499 798.118 230.999L651.316 230.999C568.474 230.999 501.316 298.157 501.316 380.999L501.316 465.5L530 465.5C595.998 465.5 649.5 411.998 649.5 346" stroke="#E88800" stroke-width="50"/>
<path d="M427.508 299.551L295.093 376.001L295.086 545.999" stroke="#E88800" stroke-width="50"/>
</svg>
